# xmcd CD database file
#
# Track frame offsets:
#	150
#	26561
#	54578
#	82092
#	113004
#	139746
#	163439
#	197699
#	230168
#	243024
#
# Disc length: 3754 seconds
#
# Revision: 0
# Processed by: cddbd v1.5.2PL0 Copyright (c) Steve Scherf et al.
# Submitted via: CDex 1.51
#
DISCID=870ea80a
DTITLE=The Toughest Tenors - What's Happening
DYEAR=2005
DGENRE=Jazz
TTITLE0=Hey Lock
TTITLE1=Pull My Coat
TTITLE2=Abundance
TTITLE3=Misterioso
TTITLE4=Woody'n You
TTITLE5=Self Portrait in 3 Colours
TTITLE6=You'd Be So Nice To Come Home To
TTITLE7=Land Of Dreams
TTITLE8=What's Happening
TTITLE9=How Am I to Know
EXTD=YEAR: 2005
EXTT0=
EXTT1=
EXTT2=
EXTT3=
EXTT4=
EXTT5=
EXTT6=
EXTT7=
EXTT8=
EXTT9=
PLAYORDER=
